<?xml version="1.0" encoding="utf-8"?>
<!-- Generator: Adobe Illustrator 21.1.0, SVG Export Plug-In . SVG Version: 6.00 Build 0)  -->
<svg version="1.1" id="Layer_1" xmlns="http://www.w3.org/2000/svg" xmlns:xlink="http://www.w3.org/1999/xlink" x="0px" y="0px"
	 viewBox="0 0 210 134.8" style="enable-background:new 0 0 210 134.8;" xml:space="preserve">
<style type="text/css">
	.st0{fill:#FFFFFF;}
</style>
<g>
	<path class="st0" d="M136.9,134.6c2.5,0,5,0,7.5,0c-0.3-9.1-4.6-18.2-9.4-27.3c3.5,0,7.1,0,10.6,0c-1.3-2.5-2.7-5-4-7.6
		c-3.5,0-7.1,0-10.6,0c-3.5-6.6-6.7-13.2-8.3-19.8c4.8,0,9.6,0,14.4,0c-0.6-2.5-1-5-1.1-7.5c-7.3,0-14.6,0-21.9,0
		C114.7,93.2,136.3,113.9,136.9,134.6z"/>
	<path class="st0" d="M153,72.5c-2.5,0-5,0-7.5,0c0.6,20.7,22.2,41.4,22.8,62.1c7.3,0,14.5,0,21.8,0c-0.1-2.5-0.5-5-1.1-7.5
		c-4.8,0-9.5,0-14.3,0C170.4,108.9,153.5,90.7,153,72.5z"/>
	<path class="st0" d="M190.4,72.5c-2.2,7.4-1.8,14.7-0.6,22.1c-6.1-7.4-11.4-14.7-14-22.1c-2.5,0-5.1,0-7.6,0
		c4.1,11.2,14.3,22.5,24,33.7c5.1,9.5,9.7,18.9,10,28.4c2.5,0,5,0,7.5,0c-0.3-9.5-5-19-10-28.4c-2.3-11.2-5.1-22.5-1.7-33.7
		C195.5,72.5,192.9,72.5,190.4,72.5z"/>
	<path class="st0" d="M34,47.3c-8.8-15.5-23.4-31-26.2-46.5c-2.5,0-5,0-7.5,0c3.8,20.7,28.6,41.4,32.3,62.1c3.4,0,6.8,0,10.2,0
		C45.4,42.3,27,21.6,29.5,0.8c-2.5,0-5,0-7.5,0C20.1,16.3,29.9,31.8,34,47.3z"/>
	<path class="st0" d="M59,35.7c3.5,0,7.1,0,10.6,0c-1.3-2.5-2.7-5-4-7.6c-3.5,0-7.1,0-10.6,0c-3.5-6.6-6.7-13.2-8.3-19.8
		c4.8,0,9.6,0,14.4,0c-0.6-2.5-1-5-1.1-7.5c-7.3,0-14.6,0-21.9,0c0.7,24.1,22.2,38.1,22.8,62.1c7.5,0,15.1,0,22.6,0
		c-0.1-2.5-0.5-5-1.1-7.5c-5,0-10.1,0-15.1,0C65.7,48.9,62.5,42.3,59,35.7z"/>
	<path class="st0" d="M104.5,38.2C94.2,25.7,82.4,13.3,78.2,0.8c-2.7,0-5.4,0-8.1,0C70.7,21.6,92.4,42.3,93,63c2.5,0,5,0,7.5,0
		c-0.4-13.3-9.4-26.6-16-39.9c10.8,13.3,24,26.6,28.6,39.9c2.4,0,4.7,0,7.1,0c-0.7-20.7-22.3-41.4-22.9-62.2c-2.5,0-5,0-7.5,0
		C90.1,13.3,98.1,25.7,104.5,38.2z"/>
	<path class="st0" d="M147.8,51c1,3-0.9,5.4-3.8,5.4c-3,0-5.9-2.4-6.9-5.4c-5.8-16.7-20-33.4-20.5-50.2c-2.5,0-5,0-7.5,0
		c0.5,16.7,14.7,33.4,20.5,50.2c2.6,7.1,8.2,12.9,15.3,12.9s13-5.8,10.5-12.9c-5.8-16.7-20-33.4-20.5-50.2c-2.5,0-5,0-7.5,0
		C127.9,17.6,142,34.3,147.8,51z"/>
	<path class="st0" d="M159,0c-0.3,0-0.5,0-0.8,0c-6.6,0-12.3,5.1-10.8,11.5c0.1,0.4,0.2,0.9,0.4,1.3l0,0c0.2,0.4,0.3,0.9,0.5,1.3
		c0.8,1.7,2,3.4,3.5,4.8l0,0c9.7,9.8,21.4,19.6,30.6,29.4l0,0l0,0l0,0c0.8,1,1.5,2,1.7,2.6c1,3-0.9,5.4-3.8,5.4
		c-3,0-5.9-2.4-6.9-5.4c-0.8-2.4-1.8-4.8-3-7.2c-2.5,0-5,0-7.5,0c1.1,2.4,2.1,4.8,3,7.2c2.6,7.1,8.2,12.9,15.3,12.9
		s13-5.8,10.5-12.9c-0.8-2.2-2.2-4.3-4-6.1l0,0l0,0l0,0c-6.9-6.9-14.7-13.8-22-20.8c-3-2.8-5.9-5.7-8.5-8.5l0,0
		c-0.9-1.1-1.5-2-1.7-2.7l0,0c-1-3,0.9-5.4,3.8-5.4c3,0,5.9,2.4,6.9,5.4c0.7,2,1.5,3.9,2.4,5.9c2.5,0,5,0,7.5,0
		c-0.9-2-1.7-3.9-2.4-5.9C171,6,165.7,0.4,159,0z"/>
</g>
</svg>
