<?xml version="1.0" encoding="utf-8"?>
<!-- Generator: Adobe Illustrator 21.1.0, SVG Export Plug-In . SVG Version: 6.00 Build 0)  -->
<svg version="1.1" id="Layer_1" xmlns="http://www.w3.org/2000/svg" xmlns:xlink="http://www.w3.org/1999/xlink" x="0px" y="0px"
	 viewBox="0 0 210.8 136" style="enable-background:new 0 0 210.8 136;" xml:space="preserve">
<style type="text/css">
	.st0{fill:#FFFFFF;}
</style>
<g>
	<g>
		<path class="st0" d="M145.6,136h-8.8l0-0.6c-0.3-10.2-5.9-20.7-11.3-30.8c-5.5-10.3-11.2-20.9-11.5-31.4l0-0.7h23.2l0,0.6
			c0.1,2.4,0.4,4.8,1,7.4l0.2,0.8h-14.4c1.5,5.8,4.3,11.6,7.9,18.5h10.6l0.2,0.3c0.7,1.3,1.4,2.5,2,3.8c0.7,1.3,1.3,2.5,2,3.8l0.5,1
			h-10.6c4.5,8.5,8.7,17.5,9,26.6L145.6,136z M138,134.7h6.2c-0.5-8.9-4.8-17.9-9.3-26.3l-0.5-1H145c-0.5-0.9-1-1.9-1.5-2.8
			c-0.6-1.2-1.2-2.3-1.9-3.5H131l-0.2-0.3c-3.9-7.4-6.9-13.6-8.4-19.9l-0.2-0.8h14.4c-0.5-2.2-0.8-4.2-0.9-6.2h-20.6
			c0.5,10,6,20.2,11.3,30.1C131.9,114,137.5,124.4,138,134.7z"/>
	</g>
	<g>
		<path class="st0" d="M191.3,136h-23.1l0-0.6c-0.3-10.2-5.9-20.7-11.3-30.8c-5.5-10.3-11.2-20.9-11.5-31.4l0-0.7h8.8l0,0.6
			c0.3,10.2,5.9,20.7,11.3,30.8c4.1,7.6,8.3,15.5,10.3,23.2h14.3l0.1,0.5c0.7,2.7,1,5.2,1.1,7.6L191.3,136z M169.5,134.7H190
			c-0.1-2-0.4-4-0.9-6.2h-14.3l-0.1-0.5c-1.9-7.8-6.2-15.7-10.3-23.4c-5.4-10-11-20.4-11.5-30.7h-6.2c0.5,10,6,20.2,11.3,30.1
			C163.4,114,169,124.4,169.5,134.7z"/>
	</g>
	<g>
		<path class="st0" d="M210.8,136H202l0-0.6c-0.3-9.3-4.8-18.6-9.9-28.1l-2.2-2.6C181,94.4,171.8,83.9,168,73.4l-0.3-0.9h9l0.2,0.4
			c2.5,7.1,7.7,14.3,12.4,20c-0.8-5.8-1.2-12.9,0.9-20l0.1-0.5h9l-0.3,0.8c-3.1,10.2-0.9,20.6,1.1,30.7l0.5,2.6
			c5.1,9.6,9.8,19.1,10,28.6L210.8,136z M203.3,134.7h6.2c-0.5-9.1-4.9-18.2-9.9-27.5l-0.1-0.2l-0.5-2.7c-2.1-10-4.2-20.3-1.3-30.5
			h-6.3c-2.2,7.7-1.4,15.4-0.4,21.3l0.4,2.4l-1.5-1.9c-5-6-11-13.9-13.9-21.8h-6.3c3.9,10,12.7,20.1,21.3,30l2.4,2.8
			C198.3,116,202.8,125.3,203.3,134.7z"/>
	</g>
	<g>
		<path class="st0" d="M43.9,64.3H32.6l-0.1-0.5C30.6,53.6,23.4,43.1,16.4,33C9.3,22.7,2,12.1,0.1,1.6L0,0.9h8.8l0.1,0.5
			C10.8,11.6,18,22.1,25,32.2c2.5,3.6,5,7.3,7.3,11c-1.1-3.5-2.5-7-3.8-10.4c-3.9-10.3-8-20.9-6.7-31.4l0.1-0.6h8.8l-0.1,0.7
			c-1.3,10.2,2.8,20.7,6.6,30.8c3.9,10.3,8,20.9,6.7,31.4L43.9,64.3z M33.6,63h9.1c1-10-2.9-20.3-6.7-30.2
			c-3.9-10-7.8-20.4-6.8-30.7H23c-1,10,2.9,20.3,6.7,30.2c1.9,5.1,4,10.3,5.3,15.5l1.3,4.8l-2.4-4.3C31,43.2,27.4,38,23.9,33
			C17,22.9,9.8,12.5,7.8,2.2H1.6c2.1,10,9.1,20.2,15.9,30.1C24.4,42.3,31.6,52.7,33.6,63z"/>
	</g>
	<g>
		<path class="st0" d="M84.6,64.3H60.7l0-0.6C60.4,51.9,54.8,42.2,49.4,33c-5.5-9.4-11.2-19.2-11.5-31.4l0-0.7H61l0,0.6
			c0.1,2.4,0.4,4.8,1,7.4l0.2,0.8H47.9c1.5,5.8,4.3,11.6,7.9,18.5h10.6l0.2,0.3c0.7,1.3,1.3,2.5,2,3.8c0.7,1.3,1.4,2.5,2,3.8l0.5,1
			H60.5c3.6,6.8,6.3,12.6,7.8,18.5h15.1l0.1,0.5c0.7,2.7,1,5.2,1.1,7.6L84.6,64.3z M62,63h21.3c-0.1-2-0.4-4-0.9-6.2H67.3l-0.1-0.5
			c-1.5-6.2-4.4-12.3-8.3-19.6l-0.5-1H69c-0.5-0.9-1-1.9-1.5-2.8c-0.6-1.1-1.2-2.3-1.8-3.4H55l-0.2-0.3c-3.9-7.4-6.9-13.6-8.4-19.9
			l-0.2-0.8h14.4c-0.5-2.1-0.8-4.2-0.9-6.2H39.2c0.5,11.6,6,21,11.3,30.1C55.9,41.6,61.5,51.1,62,63z"/>
	</g>
	<g>
		<path class="st0" d="M121.2,64.3H113l-0.2-0.4c-3.5-10.2-12.5-20.7-21.1-30.9c-1.2-1.4-2.4-2.8-3.6-4.2c0.6,1.2,1.2,2.3,1.9,3.5
			c5.5,10.2,11.2,20.8,11.5,31.4l0,0.7h-8.8l0-0.6C92.5,53.5,86.9,43,81.4,32.9C75.9,22.7,70.2,12.1,69.9,1.5l0-0.7h9.2l0.1,0.4
			c3.5,10.2,12.4,20.7,21,30.9c0.4,0.5,0.9,1,1.3,1.5c-0.1-0.3-0.3-0.5-0.4-0.8C95.6,22.7,89.9,12.1,89.6,1.5l0-0.7h8.8l0,0.6
			c0.3,10.2,5.9,20.7,11.3,30.8c5.5,10.3,11.2,20.9,11.5,31.4L121.2,64.3z M113.9,63h6c-0.5-10-6-20.2-11.3-30.1
			c-5.4-10-11-20.4-11.5-30.7h-6.2c0.5,10,6,20.2,11.3,30.1c1.1,2.1,2.2,4.2,3.3,6.2l2.8,5.4l-3.9-4.7c-1.7-2.1-3.5-4.2-5.2-6.2
			c-8.5-10.1-17.4-20.5-21-30.8h-6.9c0.5,10,6,20.2,11.3,30.1c5.4,10,11,20.4,11.5,30.7h6.2c-0.5-10-6-20.2-11.3-30.1
			c-1.6-2.9-3.2-5.9-4.6-8.8l-2.6-5.3l3.7,4.6c2.4,2.9,4.9,5.9,7.4,8.8C101.4,42.3,110.2,52.7,113.9,63z"/>
	</g>
	<g>
		<path class="st0" d="M145.3,65.2c-6.7,0-13-5.2-15.9-13.3c-2.2-6.3-5.6-12.8-9-19c-5.5-10.3-11.2-20.9-11.5-31.4l0-0.7h8.8l0,0.6
			c0.3,10.2,5.9,20.7,11.3,30.8c3.4,6.3,6.9,12.8,9.1,19.2c1,2.8,3.7,4.9,6.3,4.9c1.2,0,2.3-0.5,2.9-1.4c0.6-0.9,0.7-2,0.3-3.2l0,0
			c-2.2-6.3-5.6-12.8-9-19c-5.5-10.3-11.2-20.8-11.5-31.4l0-0.7h8.8l0,0.6c0.3,10.2,5.9,20.7,11.3,30.8c3.4,6.3,6.9,12.8,9.1,19.2
			c1.1,3.1,0.8,6.3-1.1,8.9C153.2,63.3,149.4,65.2,145.3,65.2C145.3,65.2,145.3,65.2,145.3,65.2C145.3,65.2,145.3,65.2,145.3,65.2z
			 M110.3,2.2c0.5,10,6,20.2,11.3,30.1c3.4,6.3,6.9,12.8,9.1,19.2c2.7,7.5,8.5,12.4,14.7,12.4c0,0,0,0,0,0h0c3.7,0,7.1-1.6,9-4.3
			c1.6-2.2,1.9-5,0.9-7.7c-2.2-6.3-5.6-12.8-9-19c-5.4-10-11-20.4-11.5-30.7h-6.2c0.5,10,6,20.2,11.3,30.1
			c3.4,6.3,6.9,12.8,9.1,19.2c0.6,1.6,0.4,3.1-0.5,4.3c-0.9,1.2-2.3,1.9-4,1.9c-3.1,0-6.4-2.5-7.5-5.8c-2.2-6.3-5.6-12.8-9-19
			c-5.4-10-11-20.4-11.5-30.7H110.3z"/>
	</g>
	<g>
		<path class="st0" d="M181.5,65.2c-6.7,0-13-5.2-15.9-13.3c-0.8-2.2-1.7-4.6-2.9-7.2l-0.4-0.9h8.9l0.2,0.4c1.2,2.6,2.2,5,3,7.3
			c1,2.8,3.7,4.9,6.3,4.9c1.2,0,2.3-0.5,2.9-1.4c0.6-0.9,0.7-2,0.3-3.2c-0.1-0.4-0.5-1.1-1.6-2.4c-5.1-5.5-11.1-11-16.9-16.4
			c-4.6-4.2-9.3-8.6-13.6-13l-0.5-0.5l0,0c-1.4-1.5-2.4-3-3.2-4.5c-0.2-0.5-0.4-0.9-0.6-1.4c-0.2-0.5-0.3-0.9-0.4-1.4
			c-0.7-2.9,0-5.7,1.8-8c2.2-2.7,5.8-4.4,9.7-4.4c0.2,0,0.5,0,0.7,0l0.2,0c6.5,0.4,12.2,5.5,15,13.3c0.6,1.9,1.4,3.8,2.3,5.9
			l0.4,0.9h-8.9l-0.2-0.4c-0.9-2.1-1.7-4.1-2.4-6c-1-2.8-3.7-4.9-6.3-4.9h0c-1.2,0-2.3,0.5-2.9,1.4c-0.6,0.9-0.7,2-0.3,3.2
			c0.2,0.5,0.7,1.4,1.6,2.4l0.1,0.1c2.4,2.6,5.1,5.3,8.5,8.5c2.7,2.6,5.6,5.3,8.4,7.8c4.6,4.2,9.3,8.6,13.6,13c2,2,3.4,4.2,4.2,6.4
			c1.1,3.1,0.8,6.3-1,8.9C189.4,63.3,185.6,65.2,181.5,65.2C181.5,65.2,181.5,65.2,181.5,65.2C181.5,65.2,181.5,65.2,181.5,65.2z
			 M164.3,45.1c1,2.3,1.9,4.4,2.6,6.4c2.7,7.5,8.5,12.4,14.7,12.4c0,0,0,0,0,0h0c3.7,0,7.1-1.6,9-4.3c1.6-2.2,1.9-5,0.9-7.7
			c-0.7-2-2-4-3.8-5.8c-4.3-4.4-9.1-8.7-13.6-13c-2.8-2.6-5.7-5.2-8.4-7.8c-3.2-3.1-5.9-5.7-8.2-8.2l0,0l-0.4-0.5
			c-1-1.2-1.6-2.2-1.8-2.9c-0.6-1.6-0.4-3.1,0.5-4.3c0.9-1.2,2.3-1.9,4-1.9c0,0,0,0,0,0c3.1,0,6.4,2.5,7.5,5.8
			c0.6,1.7,1.3,3.5,2.2,5.5h6.1c-0.8-1.8-1.4-3.4-2-5c-2.6-7.3-8-12-13.9-12.4l0,0l-0.2,0c-0.2,0-0.4,0-0.6,0
			c-3.5,0-6.7,1.5-8.6,3.9c-1.1,1.4-2.3,3.7-1.5,6.9c0.1,0.4,0.2,0.9,0.4,1.3c0.1,0.4,0.3,0.8,0.5,1.3c0.8,1.6,1.9,3.1,3.4,4.6
			l0.5,0.5l0,0c4.2,4.2,8.7,8.4,13.1,12.5c5.8,5.4,11.9,11,17,16.5l0,0l0,0c0,0,0,0,0,0l-0.2,0.2l0.2-0.1l-0.2,0.2l0.2-0.2l-0.2,0.2
			l0.2-0.2c0.9,1.2,1.5,2.1,1.8,2.8c0.6,1.6,0.4,3.1-0.5,4.3c-0.9,1.2-2.3,1.9-4,1.9c-3.1,0-6.4-2.5-7.5-5.8
			c-0.7-2.1-1.6-4.3-2.8-6.8H164.3z"/>
	</g>
</g>
</svg>
